<svg width="22" height="21" viewBox="0 0 22 21" fill="none" xmlns="http://www.w3.org/2000/svg">
<path d="M20.0774 2.58085H17.011V1.55873C17.011 1.28765 16.9034 1.02767 16.7117 0.835991C16.52 0.644308 16.26 0.536621 15.9889 0.536621H5.76779C5.49671 0.536621 5.23673 0.644308 5.04505 0.835991C4.85337 1.02767 4.74568 1.28765 4.74568 1.55873V2.58085H1.67934C1.40826 2.58085 1.14828 2.68853 0.956597 2.88022C0.764913 3.0719 0.657227 3.33188 0.657227 3.60296V6.6693C0.657227 11.0746 2.49601 13.7321 5.58279 13.8364C6.03468 14.613 6.65166 15.2808 7.39011 15.7926C8.12857 16.3045 8.97046 16.6478 9.85625 16.7984V18.9347H7.81202V20.9789H13.9447V18.9347H11.9005V16.7984C12.7861 16.6472 13.6277 16.3036 14.3661 15.7919C15.1044 15.2801 15.7215 14.6125 16.1739 13.8364C19.2607 13.7321 21.0995 11.0746 21.0995 6.6693V3.60296C21.0995 3.33188 20.9918 3.0719 20.8001 2.88022C20.6084 2.68853 20.3485 2.58085 20.0774 2.58085ZM2.70145 6.6693V4.62507H4.74568V11.6061C2.92223 10.8375 2.70145 7.99703 2.70145 6.6693ZM10.8784 14.8462C8.62358 14.8462 6.78991 13.0125 6.78991 10.7578V2.58085H14.9668V10.7578C14.9668 13.0125 13.1331 14.8462 10.8784 14.8462ZM17.011 11.6061V4.62507H19.0553V6.6693C19.0553 7.99703 18.8345 10.8375 17.011 11.6061Z" fill="white"/>
</svg>
