<svg width="18" height="18" viewBox="0 0 18 18" fill="none" xmlns="http://www.w3.org/2000/svg">
<path d="M0.735352 1.39841C0.735352 1.07311 0.864575 0.761139 1.0946 0.531119C1.32462 0.301099 1.63659 0.171875 1.96189 0.171875H4.41496C4.74026 0.171875 5.05223 0.301099 5.28225 0.531119C5.51227 0.761139 5.6415 1.07311 5.6415 1.39841V3.85148C5.6415 4.17678 5.51227 4.48875 5.28225 4.71877C5.05223 4.94879 4.74026 5.07802 4.41496 5.07802H1.96189C1.63659 5.07802 1.32462 4.94879 1.0946 4.71877C0.864575 4.48875 0.735352 4.17678 0.735352 3.85148V1.39841ZM6.86803 1.39841C6.86803 1.07311 6.99726 0.761139 7.22728 0.531119C7.4573 0.301099 7.76927 0.171875 8.09457 0.171875H10.5476C10.8729 0.171875 11.1849 0.301099 11.4149 0.531119C11.645 0.761139 11.7742 1.07311 11.7742 1.39841V3.85148C11.7742 4.17678 11.645 4.48875 11.4149 4.71877C11.1849 4.94879 10.8729 5.07802 10.5476 5.07802H8.09457C7.76927 5.07802 7.4573 4.94879 7.22728 4.71877C6.99726 4.48875 6.86803 4.17678 6.86803 3.85148V1.39841ZM13.0007 1.39841C13.0007 1.07311 13.1299 0.761139 13.36 0.531119C13.59 0.301099 13.902 0.171875 14.2272 0.171875H16.6803C17.0056 0.171875 17.3176 0.301099 17.5476 0.531119C17.7776 0.761139 17.9069 1.07311 17.9069 1.39841V3.85148C17.9069 4.17678 17.7776 4.48875 17.5476 4.71877C17.3176 4.94879 17.0056 5.07802 16.6803 5.07802H14.2272C13.902 5.07802 13.59 4.94879 13.36 4.71877C13.1299 4.48875 13.0007 4.17678 13.0007 3.85148V1.39841ZM0.735352 7.53109C0.735352 7.20579 0.864575 6.89382 1.0946 6.6638C1.32462 6.43378 1.63659 6.30455 1.96189 6.30455H4.41496C4.74026 6.30455 5.05223 6.43378 5.28225 6.6638C5.51227 6.89382 5.6415 7.20579 5.6415 7.53109V9.98416C5.6415 10.3095 5.51227 10.6214 5.28225 10.8515C5.05223 11.0815 4.74026 11.2107 4.41496 11.2107H1.96189C1.63659 11.2107 1.32462 11.0815 1.0946 10.8515C0.864575 10.6214 0.735352 10.3095 0.735352 9.98416V7.53109ZM6.86803 7.53109C6.86803 7.20579 6.99726 6.89382 7.22728 6.6638C7.4573 6.43378 7.76927 6.30455 8.09457 6.30455H10.5476C10.8729 6.30455 11.1849 6.43378 11.4149 6.6638C11.645 6.89382 11.7742 7.20579 11.7742 7.53109V9.98416C11.7742 10.3095 11.645 10.6214 11.4149 10.8515C11.1849 11.0815 10.8729 11.2107 10.5476 11.2107H8.09457C7.76927 11.2107 7.4573 11.0815 7.22728 10.8515C6.99726 10.6214 6.86803 10.3095 6.86803 9.98416V7.53109ZM13.0007 7.53109C13.0007 7.20579 13.1299 6.89382 13.36 6.6638C13.59 6.43378 13.902 6.30455 14.2272 6.30455H16.6803C17.0056 6.30455 17.3176 6.43378 17.5476 6.6638C17.7776 6.89382 17.9069 7.20579 17.9069 7.53109V9.98416C17.9069 10.3095 17.7776 10.6214 17.5476 10.8515C17.3176 11.0815 17.0056 11.2107 16.6803 11.2107H14.2272C13.902 11.2107 13.59 11.0815 13.36 10.8515C13.1299 10.6214 13.0007 10.3095 13.0007 9.98416V7.53109ZM0.735352 13.6638C0.735352 13.3385 0.864575 13.0265 1.0946 12.7965C1.32462 12.5665 1.63659 12.4372 1.96189 12.4372H4.41496C4.74026 12.4372 5.05223 12.5665 5.28225 12.7965C5.51227 13.0265 5.6415 13.3385 5.6415 13.6638V16.1168C5.6415 16.4421 5.51227 16.7541 5.28225 16.9841C5.05223 17.2142 4.74026 17.3434 4.41496 17.3434H1.96189C1.63659 17.3434 1.32462 17.2142 1.0946 16.9841C0.864575 16.7541 0.735352 16.4421 0.735352 16.1168V13.6638ZM6.86803 13.6638C6.86803 13.3385 6.99726 13.0265 7.22728 12.7965C7.4573 12.5665 7.76927 12.4372 8.09457 12.4372H10.5476C10.8729 12.4372 11.1849 12.5665 11.4149 12.7965C11.645 13.0265 11.7742 13.3385 11.7742 13.6638V16.1168C11.7742 16.4421 11.645 16.7541 11.4149 16.9841C11.1849 17.2142 10.8729 17.3434 10.5476 17.3434H8.09457C7.76927 17.3434 7.4573 17.2142 7.22728 16.9841C6.99726 16.7541 6.86803 16.4421 6.86803 16.1168V13.6638ZM13.0007 13.6638C13.0007 13.3385 13.1299 13.0265 13.36 12.7965C13.59 12.5665 13.902 12.4372 14.2272 12.4372H16.6803C17.0056 12.4372 17.3176 12.5665 17.5476 12.7965C17.7776 13.0265 17.9069 13.3385 17.9069 13.6638V16.1168C17.9069 16.4421 17.7776 16.7541 17.5476 16.9841C17.3176 17.2142 17.0056 17.3434 16.6803 17.3434H14.2272C13.902 17.3434 13.59 17.2142 13.36 16.9841C13.1299 16.7541 13.0007 16.4421 13.0007 16.1168V13.6638Z" fill="white"/>
</svg>
