<svg width="22" height="15" viewBox="0 0 22 15" fill="none" xmlns="http://www.w3.org/2000/svg">
<path d="M16.1184 1.3541C16.0651 1.13928 15.9434 0.947615 15.7716 0.807968C15.5999 0.668321 15.3874 0.588259 15.1663 0.579841C14.9451 0.571422 14.7271 0.635104 14.5453 0.761293C14.3634 0.887482 14.2275 1.06935 14.158 1.27949L10.9016 11.0448L7.88427 4.25384C7.80212 4.07069 7.66797 3.91571 7.49847 3.80818C7.32897 3.70064 7.13161 3.64529 6.93092 3.64899C6.73022 3.65269 6.53504 3.71529 6.36962 3.829C6.20421 3.94272 6.07586 4.10253 6.00052 4.28859L4.21387 8.75727H0.817383V10.8015H4.21387C5.05506 10.8015 5.80018 10.2966 6.11091 9.5167L6.99912 7.29667L10.1033 14.2828C10.2689 14.6538 10.6358 14.8899 11.0385 14.8899L11.0876 14.8889C11.2935 14.8791 11.4916 14.8072 11.6558 14.6826C11.82 14.558 11.9426 14.3865 12.0075 14.1908L14.9859 5.25551L15.9866 9.25299C16.0963 9.69568 16.3513 10.0888 16.7107 10.3695C17.0702 10.6502 17.5134 10.8023 17.9695 10.8015H21.2596V8.75727H17.9684L16.1184 1.3541Z" fill="white"/>
</svg>
